<svg width="313" height="300" viewBox="0 0 313 300" fill="none" xmlns="http://www.w3.org/2000/svg">
<g clip-path="url(#clip0_92_983)">
<path opacity="0.75" d="M97.1607 121.931L97.1659 121.899L97.1601 121.931L97.1368 121.854L91.2213 102.612L75.0987 96.6181L137.959 74.3041L137.968 74.3011L137.964 74.3072L114.887 111.41L106.533 108.305L97.1607 121.931Z" fill="url(#paint0_linear_92_983)"/>
<path d="M104.978 168.662C95.5224 133.375 116.464 97.1025 151.752 87.6471C187.04 78.1917 223.311 99.1337 232.767 134.421C242.222 169.709 221.281 205.981 185.993 215.436C150.705 224.892 114.433 203.95 104.978 168.662Z" fill="#D5F1FC"/>
<path d="M153.222 236.589C151.17 237.139 149.09 236.891 147.315 236.034C147.17 235.964 147.026 235.889 146.884 235.811C146.835 235.783 146.785 235.755 146.736 235.726C145.925 235.256 145.193 234.652 144.573 233.937C145.8 234.175 147.1 234.144 148.389 233.798C148.39 233.798 148.391 233.798 148.392 233.798L227.788 212.491C229.835 211.941 231.507 210.691 232.616 209.068C232.706 208.936 232.793 208.8 232.876 208.662C232.905 208.614 232.934 208.565 232.963 208.516C233.931 206.836 234.331 204.828 233.978 202.806L228.117 180.966C229.052 179.085 229.899 177.159 230.653 175.194L238.812 205.597C239.164 207.619 238.765 209.627 237.797 211.306C237.768 211.356 237.739 211.405 237.71 211.453C237.627 211.591 237.54 211.726 237.449 211.859C236.341 213.482 234.668 214.732 232.621 215.282L153.226 236.588C153.225 236.589 153.224 236.589 153.222 236.589Z" fill="#E9E8E7"/>
<path d="M228.117 180.966L220.039 150.862C219.618 149.717 218.97 148.71 218.162 147.877L220.067 148.698C220.232 148.765 220.396 148.837 220.557 148.914L220.574 148.923C220.639 148.953 220.703 148.986 220.767 149.019C222.617 149.969 224.113 151.587 224.872 153.653L230.653 175.194C229.899 177.159 229.052 179.085 228.117 180.966ZM213.653 145.226L209.034 143.236L204.051 124.639C205.292 124.008 206.462 123.276 207.552 122.455L213.653 145.226Z" fill="#BFDCE9"/>
<path d="M140.92 177.168L125.467 170.522C125.505 170.462 125.545 170.401 125.586 170.341L125.596 170.325C126.704 168.694 128.381 167.437 130.435 166.886L209.831 145.579C211.878 145.029 213.951 145.274 215.723 146.124L215.74 146.132C215.805 146.164 215.87 146.196 215.933 146.228L205.888 159.713L188.608 182.908L187.011 185.052L182.618 190.949L180.276 194.092L176.674 192.544L169.919 189.639L167.463 188.582L140.92 177.168Z" fill="#B2621D"/>
<path d="M200.23 139.442L215.575 146.054C215.536 146.115 215.497 146.175 215.457 146.234L215.446 146.251C214.347 147.871 212.683 149.12 210.644 149.667L131.829 170.819C129.797 171.364 127.739 171.12 125.979 170.274L125.962 170.266C125.897 170.235 125.834 170.203 125.77 170.17L135.738 156.769L152.884 133.717L154.469 131.586L158.827 125.725L161.152 122.6L164.728 124.142L171.436 127.032L173.874 128.084L200.23 139.442Z" fill="#B2621D"/>
<path d="M186.919 96.5178L125.664 112.931C120.719 114.256 117.784 119.339 119.11 124.284L139.924 201.966L219.087 180.754L198.272 103.072C196.947 98.1274 191.864 95.1928 186.919 96.5178Z" fill="white"/>
<path d="M197.597 138.475L137.396 154.606C136.487 154.849 135.553 154.31 135.309 153.402C135.066 152.493 135.605 151.559 136.514 151.315L196.715 135.185C197.624 134.941 198.557 135.481 198.801 136.389C199.044 137.298 198.505 138.232 197.597 138.475Z" fill="#D5F1FC"/>
<path d="M199.636 146.084L139.435 162.215C138.526 162.459 137.592 161.92 137.348 161.011C137.105 160.102 137.644 159.168 138.553 158.925L198.754 142.794C199.663 142.55 200.596 143.09 200.84 143.999C201.083 144.907 200.544 145.841 199.636 146.084Z" fill="#D5F1FC"/>
<path d="M201.674 153.694L141.473 169.825C140.565 170.068 139.63 169.529 139.387 168.621C139.143 167.712 139.683 166.778 140.592 166.534L200.793 150.403C201.701 150.16 202.635 150.699 202.879 151.608C203.122 152.517 202.583 153.45 201.674 153.694Z" fill="#D5F1FC"/>
<path d="M203.713 161.302L143.512 177.433C142.604 177.677 141.669 177.138 141.426 176.228C141.182 175.32 141.722 174.386 142.631 174.143L202.832 158.012C203.74 157.768 204.674 158.307 204.917 159.216C205.161 160.125 204.622 161.059 203.713 161.302Z" fill="#D5F1FC"/>
<path d="M205.752 168.912L145.551 185.042C144.643 185.286 143.708 184.747 143.465 183.838C143.221 182.929 143.761 181.995 144.67 181.752L204.871 165.621C205.779 165.378 206.713 165.917 206.957 166.825C207.2 167.734 206.661 168.668 205.752 168.912Z" fill="#D5F1FC"/>
<path opacity="0.75" d="M179.128 189.684L184.224 183.617L186.057 181.435L186.326 181.116L205.102 158.766L215.723 146.123L215.74 146.132C215.805 146.163 215.87 146.196 215.933 146.228C217.783 147.179 219.28 148.797 220.038 150.862L233.978 202.806C234.33 204.828 233.931 206.836 232.963 208.516C232.934 208.565 232.905 208.614 232.876 208.663C232.793 208.8 232.706 208.936 232.616 209.068L217.092 203.443L182.618 190.948L179.128 189.684Z" fill="url(#paint1_linear_92_983)"/>
<path opacity="0.75" d="M137.951 227.775L124.412 177.328C123.766 174.918 124.219 172.471 125.467 170.522C125.505 170.462 125.545 170.401 125.586 170.341L125.596 170.325L141.13 175.954L168.541 185.889L168.933 186.031L171.613 187.002L179.061 189.702L176.674 192.544L159.556 212.92L153.11 220.594L142.482 233.244C142.336 233.173 142.192 233.099 142.052 233.021C142.001 232.993 141.952 232.964 141.902 232.935C140.023 231.844 138.558 230.039 137.951 227.775Z" fill="url(#paint2_linear_92_983)"/>
<path d="M144.572 233.938C143.844 233.797 143.142 233.563 142.481 233.244L143.389 232.164C143.711 232.812 144.111 233.406 144.572 233.938Z" fill="#CCCCC9"/>
<path d="M148.389 233.799C147.1 234.144 145.8 234.175 144.573 233.938C144.111 233.406 143.712 232.812 143.389 232.164L153.11 220.594L156.514 216.541C166.003 218.353 176.036 218.104 185.993 215.436C195.961 212.765 204.782 207.957 212.099 201.633L217.092 203.443L232.616 209.069C231.507 210.691 229.835 211.941 227.788 212.491L148.392 233.798C148.391 233.798 148.39 233.799 148.389 233.799Z" fill="#B7B6B5"/>
<path d="M185.993 215.436C176.036 218.104 166.003 218.352 156.514 216.541L159.556 212.92L176.674 192.544L180.276 194.092L182.619 190.948L212.099 201.633C204.782 207.956 195.961 212.765 185.993 215.436Z" fill="#94ACB7"/>
<path d="M180.276 194.092L176.674 192.543L177.134 191.995L181.949 190.705L182.618 190.948L180.276 194.092Z" fill="#8B4D1C"/>
<path d="M181.948 190.706L177.134 191.996L179.061 189.702L171.612 187.002L168.933 186.031L170.283 183.689C171.64 181.335 173.824 179.754 176.256 179.102C178.687 178.451 181.365 178.727 183.716 180.084L186.057 181.435L184.224 183.617L179.129 189.684L181.948 190.706Z" fill="#CCCCC9"/>
<path d="M232.616 209.068L217.092 203.443L212.099 201.633L182.618 190.948L181.948 190.706L179.128 189.684L184.224 183.617L186.057 181.435L188.608 182.907L218.199 199.992L232.963 208.516C232.934 208.565 232.905 208.614 232.876 208.663C232.793 208.8 232.706 208.936 232.616 209.068Z" fill="#C68A21"/>
<path d="M142.482 233.244C142.337 233.173 142.193 233.099 142.052 233.021C142.001 232.993 141.952 232.964 141.902 232.935L150.414 218.166L167.463 188.582L168.934 186.031L171.613 187.002L179.061 189.702L177.135 191.996L176.674 192.544L159.556 212.92L156.514 216.541L153.11 220.594L143.389 232.164L142.482 233.244Z" fill="#C68A21"/>
<path opacity="0.75" d="M142.051 233.021L151.246 218.707L156.574 210.412L169.919 189.639L171.612 187.002L172.831 185.106C174.843 181.972 178.909 180.881 182.221 182.586L184.224 183.617L187.011 185.052L217.754 200.878L232.876 208.663C232.793 208.8 232.706 208.936 232.616 209.068C231.507 210.691 229.835 211.941 227.788 212.491L148.392 233.798C146.338 234.35 144.257 234.101 142.481 233.244C142.336 233.173 142.192 233.1 142.051 233.021Z" fill="url(#paint3_linear_92_983)"/>
<path d="M186.057 181.436C188.452 178.427 190.885 175.451 193.33 172.485L193.589 172.171L193.914 172.084L186.326 181.116L186.057 181.436Z" fill="white"/>
<path d="M211.238 151.463L211.199 151.317C212.548 149.759 213.904 148.206 215.271 146.663L211.238 151.463Z" fill="#D4A14A"/>
<path d="M197.738 167.532L197.352 167.636L200.709 163.623L202.364 161.664L202.756 161.559L197.738 167.532ZM204.864 159.05C204.835 158.973 204.8 158.899 204.761 158.829L206.298 157.024L207.232 155.927L208.171 154.833C209.178 153.658 210.186 152.486 211.199 151.317L211.238 151.462L205.103 158.766L204.864 159.05Z" fill="white"/>
<path d="M202.756 161.559L202.364 161.664L204.429 159.219L204.761 158.829C204.8 158.899 204.835 158.973 204.864 159.05L202.756 161.559Z" fill="#EBF9FE"/>
<path d="M193.915 172.084L193.589 172.171L194.247 171.373L195.167 170.263L197.009 168.046L197.352 167.636L197.738 167.533L193.915 172.084Z" fill="#EBF9FE"/>
<path d="M186.057 181.436L186.326 181.116L193.914 172.084L197.737 167.533L202.756 161.559L204.864 159.05L205.102 158.766L211.238 151.463L215.27 146.663C215.427 146.486 215.583 146.309 215.74 146.132C213.346 149.141 210.914 152.118 208.468 155.084L207.552 156.196L206.632 157.305L204.79 159.523L201.09 163.945L197.368 168.349L195.5 170.544L194.565 171.641L193.627 172.735C191.125 175.653 188.61 178.56 186.057 181.436Z" fill="#FAD364"/>
<path d="M168.933 186.032L168.541 185.889L157.426 181.861L157.752 181.774L158.163 181.927C161.763 183.268 165.357 184.626 168.933 186.032Z" fill="white"/>
<path d="M132.075 172.673L126.259 170.565C128.189 171.208 130.114 171.864 132.037 172.528L132.075 172.673Z" fill="#D4A14A"/>
<path d="M152.219 179.729L151.832 179.833L144.489 177.171L144.881 177.066L147.344 177.951L152.219 179.729ZM141.388 176.048L141.13 175.954L132.076 172.672L132.037 172.528C133.522 173.041 135.006 173.56 136.489 174.08L137.849 174.557L139.206 175.038L141.368 175.806C141.369 175.886 141.376 175.967 141.388 176.048Z" fill="white"/>
<path d="M144.881 177.067L144.489 177.172L141.388 176.048C141.376 175.968 141.369 175.887 141.368 175.807L141.921 176.003L144.881 177.067Z" fill="#EBF9FE"/>
<path d="M157.752 181.774L157.426 181.861L151.831 179.833L152.219 179.73L152.758 179.926L155.461 180.924L156.813 181.423L157.752 181.774Z" fill="#EBF9FE"/>
<path d="M168.933 186.032C165.286 184.82 161.656 183.564 158.031 182.291L156.671 181.814L155.313 181.333L152.598 180.369L147.175 178.42L141.761 176.447L139.058 175.45L137.706 174.95L136.356 174.447C132.757 173.105 129.163 171.746 125.586 170.341C125.81 170.415 126.035 170.49 126.259 170.565L132.075 172.673L141.13 175.955L141.388 176.048L144.489 177.172L151.832 179.833L157.426 181.861L168.542 185.889L168.933 186.032Z" fill="#FAD364"/>
<path d="M216.911 106.049C206.427 94.997 192.333 87.8025 177.096 85.8886C179.838 83.3597 183.215 81.4397 187.068 80.4073C199.774 77.0027 212.834 84.5433 216.239 97.2495C217.031 100.206 217.231 103.18 216.911 106.049Z" fill="#E9E8E7"/>
<path d="M207.552 122.455L203.106 105.863C202.18 102.409 199.421 99.9355 196.155 99.2097C193.895 96.7451 190.374 95.592 186.919 96.5176L169.512 101.182C170.066 95.3055 172.8 89.8504 177.096 85.8884C192.333 87.8023 206.427 94.9968 216.911 106.049C216.184 112.56 212.781 118.52 207.552 122.455Z" fill="#BFDCE9"/>
<path d="M204.051 124.64L198.272 103.073C197.873 101.582 197.132 100.274 196.156 99.2104C199.421 99.9362 202.18 102.409 203.106 105.864L207.552 122.456C206.462 123.276 205.292 124.009 204.051 124.64Z" fill="#AAC4D0"/>
<path d="M199.397 126.42C186.691 129.825 173.631 122.284 170.226 109.578C169.471 106.761 169.254 103.925 169.512 101.182L186.919 96.5176C190.374 95.592 193.895 96.745 196.155 99.2096C197.132 100.274 197.872 101.582 198.272 103.072L204.051 124.639C202.594 125.38 201.039 125.981 199.397 126.42Z" fill="#E9E8E7"/>
<path d="M171.744 106.948C168.339 94.2423 175.88 81.1818 188.586 77.7772C201.292 74.3726 214.353 81.9131 217.757 94.6192C221.162 107.326 213.621 120.386 200.915 123.79C188.209 127.195 175.149 119.655 171.744 106.948Z" fill="#0F835C"/>
<path d="M191.213 103.218C191.86 105.635 193.125 106.688 194.791 106.242C196.823 105.697 197.971 103.901 197.789 99.9299C197.636 95.9954 196.267 94.4778 193.794 95.1405C191.013 95.8857 190.286 99.7601 191.213 103.218ZM206.615 111.814C205.158 113.458 202.648 115.188 198.343 116.342C190.045 118.565 182.446 114.483 180.05 105.545C177.549 96.21 182.021 87.6754 191.689 85.0848C199.184 83.0765 206.716 85.8125 208.954 94.1622C210.699 100.676 208.39 105.635 203.509 106.943C201.394 107.509 199.666 107.11 198.965 105.279C198.203 107.325 197.015 108.663 194.587 109.314C191.597 110.115 188.799 108.578 187.665 104.345C186.193 98.8521 188.4 93.6659 192.596 92.5414C195.304 91.816 196.83 92.9203 197.504 94.0502L197.481 91.6238L200.817 90.7297L201.337 101.428C201.455 103.77 202.187 104.299 203.465 103.956C206.063 103.26 207.17 99.7131 205.941 95.126C204.258 88.846 198.821 86.075 192.323 87.8161C184.672 89.866 181.112 96.5018 183.287 104.697C185.05 111.35 190.828 115.318 197.747 113.464C200.774 112.653 203.249 111.44 205.215 109.502L206.615 111.814Z" fill="white"/>
<path d="M148.292 137.638L136.846 140.705C134.302 141.386 131.685 139.876 131.003 137.332L127.936 125.886C127.254 123.341 128.765 120.725 131.31 120.043L142.756 116.976C145.301 116.294 147.917 117.804 148.599 120.349L151.666 131.795C152.347 134.34 150.837 136.956 148.292 137.638Z" fill="#E25151" fill-opacity="0.1"/>
<path d="M135.589 72.9284L135.586 72.9344L112.508 110.037L97.488 104.453L88.843 101.239L72.7203 95.2454L135.581 72.9314L135.589 72.9284Z" fill="url(#paint4_linear_92_983)"/>
<path d="M122.327 82.014L97.4875 104.453L88.843 101.239L122.327 82.014Z" fill="white"/>
<path d="M97.4881 104.453L94.7923 120.501L94.7818 120.559L94.7585 120.481L88.843 101.239L97.4881 104.453Z" fill="url(#paint5_linear_92_983)"/>
<path d="M95.0879 120.749L104.46 107.123L97.7932 104.644L95.0879 120.749Z" fill="url(#paint6_linear_92_983)"/>
<path d="M93.3895 126.685C93.2748 126.715 93.1503 126.717 93.0276 126.683C92.6629 126.58 92.4505 126.201 92.5525 125.837C92.8733 124.694 93.2602 123.561 93.7036 122.469C93.8461 122.119 94.2458 121.95 94.5966 122.092C94.9479 122.234 95.1165 122.634 94.974 122.985C94.5503 124.03 94.1801 125.114 93.8735 126.208C93.805 126.449 93.6161 126.624 93.3895 126.685ZM92.2592 133.546C92.1911 133.564 92.1191 133.572 92.0449 133.568C91.6666 133.548 91.3765 133.225 91.3967 132.846C91.4598 131.667 91.5894 130.477 91.7819 129.31C91.8435 128.936 92.1963 128.683 92.5701 128.745C92.9438 128.807 93.1967 129.159 93.1352 129.533C92.9509 130.651 92.8267 131.791 92.7663 132.92C92.7499 133.224 92.5381 133.471 92.2592 133.546ZM110.554 134.994C110.487 135.012 110.418 135.019 110.346 135.017C109.259 134.969 108.144 135.048 107.032 135.252C106.659 135.32 106.302 135.074 106.233 134.702C106.165 134.329 106.412 133.972 106.784 133.903C107.997 133.681 109.216 133.594 110.406 133.646C110.784 133.663 111.078 133.984 111.061 134.362C111.048 134.668 110.835 134.919 110.554 134.994ZM100.675 137.848C100.398 137.922 100.094 137.816 99.926 137.564C99.7166 137.249 99.8023 136.824 100.118 136.614C101.121 135.947 102.196 135.378 103.312 134.922C103.662 134.779 104.063 134.948 104.206 135.298C104.349 135.649 104.181 136.049 103.83 136.192C102.798 136.613 101.805 137.139 100.877 137.756C100.813 137.799 100.745 137.829 100.675 137.848ZM92.6643 140.487C92.6444 140.492 92.624 140.497 92.6032 140.5C92.2301 140.565 91.875 140.315 91.8104 139.941C91.6093 138.782 91.4725 137.592 91.4039 136.405C91.382 136.027 91.671 135.702 92.0488 135.68C92.427 135.659 92.7512 135.947 92.7731 136.326C92.8387 137.461 92.9694 138.598 93.1617 139.707C93.2229 140.06 93.0032 140.396 92.6643 140.487ZM117.125 137.041C116.943 137.09 116.74 137.063 116.57 136.95C116.01 136.582 115.422 136.265 114.822 136.011C114.427 135.843 114.016 135.694 113.601 135.568C113.239 135.457 113.035 135.074 113.145 134.712C113.256 134.349 113.639 134.146 114.001 134.256C114.462 134.396 114.918 134.562 115.357 134.748C116.035 135.035 116.697 135.391 117.325 135.806C117.641 136.015 117.728 136.44 117.52 136.756C117.424 136.902 117.282 136.999 117.125 137.041ZM95.81 142.767C95.6272 142.816 95.4251 142.79 95.2548 142.678C94.9386 142.469 94.8515 142.044 95.06 141.728C95.574 140.948 96.1442 140.206 96.7549 139.521C96.9383 139.316 97.1294 139.111 97.3238 138.914C97.5895 138.644 98.0235 138.641 98.2937 138.907C98.5633 139.172 98.5669 139.607 98.3012 139.876C98.1223 140.058 97.9468 140.245 97.7787 140.434C97.2123 141.07 96.6824 141.759 96.2047 142.483C96.1085 142.628 95.9663 142.725 95.81 142.767ZM93.0337 149.124C92.9235 149.153 92.8045 149.155 92.6863 149.126C92.3194 149.031 92.0983 148.657 92.1925 148.29C92.4666 147.223 92.8134 146.182 93.2251 145.193C93.0048 144.606 92.8039 144.011 92.6241 143.411C92.5154 143.048 92.7212 142.666 93.084 142.558C93.4469 142.448 93.829 142.655 93.9378 143.017C94.1126 143.601 94.3081 144.178 94.5229 144.747C94.6045 144.853 94.6538 144.98 94.6644 145.114C94.8089 145.479 94.9613 145.841 95.1211 146.197C95.276 146.542 95.1217 146.948 94.7763 147.104C94.5126 147.222 94.2134 147.16 94.0178 146.97C93.8317 147.513 93.6655 148.068 93.521 148.632C93.4572 148.88 93.265 149.062 93.0337 149.124ZM121.656 142.228C121.348 142.311 121.013 142.168 120.865 141.871C120.373 140.878 119.758 139.954 119.036 139.123C118.788 138.837 118.818 138.404 119.104 138.156C119.39 137.907 119.823 137.938 120.072 138.224C120.87 139.142 121.55 140.165 122.094 141.262C122.262 141.601 122.123 142.012 121.784 142.18C121.742 142.201 121.699 142.217 121.656 142.228ZM98.3836 153.009C98.1386 153.074 97.8664 153.001 97.6886 152.797C96.921 151.916 96.2031 150.946 95.5545 149.914C95.353 149.593 95.4496 149.17 95.7701 148.968C96.0908 148.767 96.5141 148.863 96.7156 149.184C97.3266 150.156 98.0017 151.068 98.7226 151.896C98.9713 152.181 98.9415 152.614 98.656 152.863C98.5746 152.934 98.4813 152.983 98.3836 153.009ZM92.2839 156.028C92.2333 156.042 92.1804 156.05 92.1259 156.052C91.7472 156.062 91.4314 155.765 91.4204 155.386C91.3855 154.19 91.4318 152.988 91.558 151.814C91.5984 151.438 91.9364 151.165 92.313 151.205C92.6895 151.246 92.962 151.584 92.9215 151.96C92.8021 153.073 92.7582 154.212 92.7912 155.346C92.8007 155.67 92.5838 155.948 92.2839 156.028ZM122.952 148.981C122.872 149.003 122.788 149.01 122.702 149.001C122.325 148.961 122.052 148.623 122.093 148.246C122.205 147.187 122.151 146.09 121.933 144.986C121.859 144.614 122.1 144.254 122.472 144.18C122.844 144.106 123.204 144.348 123.278 144.719C123.524 145.959 123.583 147.194 123.456 148.392C123.425 148.681 123.218 148.91 122.952 148.981ZM103.805 157.314C103.647 157.356 103.474 157.342 103.317 157.262C102.261 156.724 101.24 156.062 100.282 155.295C99.9865 155.058 99.9389 154.627 100.175 154.331C100.412 154.036 100.844 153.988 101.14 154.224C102.025 154.933 102.967 155.544 103.94 156.04C104.277 156.212 104.411 156.625 104.239 156.963C104.147 157.143 103.987 157.265 103.805 157.314ZM120 155.142C119.772 155.203 119.518 155.144 119.338 154.966C119.07 154.698 119.068 154.264 119.336 153.996C120.115 153.212 120.747 152.325 121.214 151.356C121.379 151.015 121.789 150.873 122.13 151.037C122.471 151.201 122.614 151.611 122.449 151.953C121.916 153.058 121.196 154.071 120.308 154.963C120.22 155.052 120.113 155.112 120 155.142ZM93.3759 162.892C93.0146 162.989 92.6413 162.778 92.5388 162.416C92.4953 162.263 92.453 162.11 92.4116 161.955C92.1429 160.953 91.9245 159.939 91.7623 158.942C91.7014 158.568 91.9555 158.216 92.3289 158.155C92.7027 158.094 93.055 158.347 93.1158 158.721C93.2707 159.673 93.4794 160.642 93.7363 161.6C93.7759 161.748 93.8165 161.895 93.8581 162.042C93.9617 162.407 93.75 162.785 93.3858 162.889L93.3759 162.892ZM110.52 158.895C110.466 158.91 110.408 158.918 110.35 158.919C109.117 158.932 107.9 158.8 106.73 158.528C106.362 158.442 106.133 158.073 106.219 157.704C106.305 157.336 106.674 157.106 107.042 157.192C108.105 157.44 109.213 157.56 110.335 157.548C110.713 157.543 111.023 157.847 111.028 158.226C111.031 158.546 110.815 158.816 110.52 158.895ZM114.219 158.391C114.132 158.414 114.044 158.437 113.956 158.459C113.588 158.55 113.216 158.326 113.124 157.959C113.033 157.591 113.258 157.221 113.625 157.128C114.717 156.856 115.757 156.456 116.707 155.942C117.04 155.763 117.456 155.887 117.636 156.22C117.816 156.553 117.692 156.969 117.359 157.149C116.385 157.676 115.329 158.093 114.219 158.391ZM95.9394 169.36C95.633 169.442 95.3005 169.301 95.1511 169.007C94.6061 167.933 94.1136 166.848 93.6872 165.779C93.547 165.427 93.7183 165.028 94.07 164.888C94.4222 164.747 94.8208 164.919 94.9611 165.271C95.3722 166.301 95.8477 167.35 96.3739 168.386C96.5453 168.724 96.4107 169.137 96.0729 169.308C96.0295 169.33 95.9848 169.347 95.9394 169.36ZM99.5581 175.307C99.2888 175.379 98.9914 175.282 98.8208 175.041C98.1279 174.062 97.474 173.071 96.8775 172.094C96.6802 171.771 96.7821 171.349 97.1053 171.151C97.4287 170.954 97.8506 171.056 98.0479 171.379C98.6284 172.33 99.265 173.295 99.9401 174.248C100.159 174.557 100.086 174.985 99.7768 175.204C99.7085 175.252 99.6345 175.287 99.5581 175.307ZM103.916 180.739C103.675 180.803 103.408 180.733 103.229 180.536C102.443 179.666 101.674 178.763 100.945 177.854C100.707 177.559 100.755 177.127 101.05 176.89C101.345 176.653 101.777 176.7 102.014 176.995C102.727 177.884 103.478 178.766 104.247 179.617C104.501 179.897 104.479 180.331 104.198 180.585C104.114 180.66 104.017 180.711 103.916 180.739ZM108.871 185.631C108.657 185.689 108.418 185.641 108.24 185.484C107.361 184.709 106.494 183.9 105.664 183.081C105.395 182.815 105.392 182.381 105.658 182.111C105.924 181.842 106.358 181.839 106.628 182.105C107.439 182.906 108.287 183.697 109.147 184.454C109.43 184.705 109.458 185.138 109.208 185.423C109.115 185.527 108.997 185.598 108.871 185.631ZM114.343 189.939C114.154 189.989 113.944 189.959 113.772 189.838C112.813 189.166 111.862 188.459 110.946 187.738C110.647 187.503 110.597 187.072 110.831 186.774C111.065 186.477 111.496 186.425 111.793 186.66C112.691 187.366 113.621 188.057 114.559 188.715C114.869 188.932 114.944 189.36 114.726 189.67C114.631 189.807 114.493 189.898 114.343 189.939ZM120.255 193.62C120.09 193.664 119.908 193.647 119.747 193.558C118.723 192.996 117.7 192.397 116.709 191.78C116.387 191.58 116.289 191.157 116.489 190.835C116.689 190.514 117.112 190.415 117.433 190.616C118.404 191.22 119.405 191.806 120.408 192.356C120.739 192.538 120.861 192.955 120.679 193.288C120.585 193.458 120.429 193.573 120.255 193.62ZM126.532 196.634C126.392 196.671 126.238 196.665 126.093 196.605C125.015 196.158 123.934 195.675 122.879 195.168C122.537 195.005 122.393 194.595 122.557 194.253C122.721 193.912 123.131 193.768 123.472 193.932C124.505 194.427 125.563 194.901 126.618 195.338C126.968 195.483 127.134 195.884 126.989 196.234C126.904 196.439 126.732 196.58 126.532 196.634ZM133.104 198.941C132.987 198.972 132.86 198.973 132.736 198.936C131.615 198.612 130.487 198.251 129.382 197.863C129.025 197.737 128.837 197.346 128.962 196.989C129.088 196.631 129.479 196.443 129.836 196.569C130.917 196.948 132.021 197.301 133.118 197.619C133.481 197.725 133.69 198.105 133.585 198.469C133.516 198.708 133.328 198.88 133.104 198.941ZM139.891 200.497C139.799 200.522 139.7 200.527 139.599 200.51C138.45 200.315 137.288 200.083 136.145 199.821C135.776 199.736 135.546 199.368 135.63 198.999C135.715 198.63 136.083 198.4 136.452 198.484C137.57 198.74 138.706 198.967 139.829 199.158C140.203 199.222 140.454 199.575 140.39 199.949C140.344 200.222 140.142 200.43 139.891 200.497Z" fill="#F68714"/>
</g>
<defs>
<linearGradient id="paint0_linear_92_983" x1="115.023" y1="117.145" x2="105.849" y2="82.9073" gradientUnits="userSpaceOnUse">
<stop stop-color="#B429F9"/>
<stop offset="0.0001" stop-color="#F68714"/>
<stop offset="1" stop-color="#F0C419"/>
</linearGradient>
<linearGradient id="paint1_linear_92_983" x1="211.505" y1="214.725" x2="194.637" y2="151.773" gradientUnits="userSpaceOnUse">
<stop stop-color="#B429F9"/>
<stop offset="0.0001" stop-color="#F68714"/>
<stop offset="1" stop-color="#F0C419"/>
</linearGradient>
<linearGradient id="paint2_linear_92_983" x1="163.549" y1="227.599" x2="146.688" y2="164.673" gradientUnits="userSpaceOnUse">
<stop stop-color="#B429F9"/>
<stop offset="0.0001" stop-color="#F68714"/>
<stop offset="1" stop-color="#F0C419"/>
</linearGradient>
<linearGradient id="paint3_linear_92_983" x1="188.085" y1="223.162" x2="177.063" y2="182.025" gradientUnits="userSpaceOnUse">
<stop stop-color="#B429F9"/>
<stop offset="0.0001" stop-color="#F68714"/>
<stop offset="1" stop-color="#F0C419"/>
</linearGradient>
<linearGradient id="paint4_linear_92_983" x1="111.202" y1="110.387" x2="103.471" y2="81.5346" gradientUnits="userSpaceOnUse">
<stop stop-color="#B429F9"/>
<stop offset="0.0001" stop-color="#F68714"/>
<stop offset="1" stop-color="#F0C419"/>
</linearGradient>
<linearGradient id="paint5_linear_92_983" x1="97.7021" y1="119.776" x2="92.4743" y2="100.266" gradientUnits="userSpaceOnUse">
<stop stop-color="#B429F9"/>
<stop offset="0.0001" stop-color="#F68714"/>
<stop offset="1" stop-color="#F0C419"/>
</linearGradient>
<linearGradient id="paint6_linear_92_983" x1="101.164" y1="119.121" x2="97.3185" y2="104.771" gradientUnits="userSpaceOnUse">
<stop stop-color="#B429F9"/>
<stop offset="0.0001" stop-color="#F68714"/>
<stop offset="1" stop-color="#F0C419"/>
</linearGradient>
<clipPath id="clip0_92_983">
<rect width="244.949" height="244.949" fill="white" transform="translate(12.167 63.3975) rotate(-15)"/>
</clipPath>
</defs>
</svg>
